<?xml version="1.0" encoding="iso-8859-1"?>
<!-- Generator: Adobe Illustrator 19.0.0, SVG Export Plug-In . SVG Version: 6.00 Build 0)  -->
<svg xmlns="http://www.w3.org/2000/svg" xmlns:xlink="http://www.w3.org/1999/xlink" version="1.1" id="Capa_1" x="0px" y="0px" viewBox="0 0 471.248 471.248" style="enable-background:new 0 0 471.248 471.248;" xml:space="preserve" width="512px" height="512px">
<g>
	<g>
		<path d="M118.581,211.784c-12.129-6.711-19.457-19.668-18.96-33.52c-0.546-13.948,6.863-27,19.12-33.68    c4.03-1.811,5.829-6.546,4.018-10.576c-1.811-4.03-6.546-5.829-10.576-4.017c-0.135,0.061-0.269,0.126-0.401,0.194    c-17.724,9.361-28.606,27.963-28.08,48c-0.553,19.98,10.223,38.559,27.84,48c3.976,1.944,8.776,0.296,10.72-3.68    C124.205,218.528,122.558,213.728,118.581,211.784z" fill="#006DF0"/>
	</g>
</g>
<g>
	<g>
		<path d="M88.243,240.33c-0.073-0.05-0.147-0.099-0.222-0.146h0.08c-19.979-14.24-31.581-37.473-30.96-62    c-0.607-24.524,10.992-47.751,30.96-62c3.73-2.369,4.833-7.313,2.464-11.042c-2.369-3.729-7.313-4.833-11.042-2.464    c-0.075,0.047-0.148,0.096-0.221,0.146c-24.481,17.202-38.812,45.445-38.24,75.36c-0.591,29.9,13.709,58.14,38.16,75.36    c3.649,2.491,8.627,1.553,11.118-2.096C92.831,247.799,91.892,242.822,88.243,240.33z" fill="#006DF0"/>
	</g>
</g>
<g>
	<g>
		<path d="M59.621,265.704c-28.173-20.113-44.607-52.831-43.92-87.44c-0.713-34.637,15.724-67.391,43.92-87.52    c3.689-2.452,4.692-7.431,2.24-11.12s-7.431-4.692-11.12-2.24c-32.493,23.182-51.468,60.892-50.72,100.8    c-0.748,39.908,18.227,77.618,50.72,100.8c3.803,2.248,8.709,0.988,10.958-2.815C63.773,272.66,62.878,268.154,59.621,265.704z" fill="#006DF0"/>
	</g>
</g>
<g>
	<g>
		<path d="M387.541,178.024c0.464-19.98-10.409-38.505-28.08-47.84c-3.923-2.033-8.751-0.501-10.784,3.422    c-2.033,3.923-0.501,8.751,3.422,10.784c0.132,0.068,0.266,0.133,0.401,0.194c12.257,6.68,19.666,19.732,19.12,33.68    c0.436,13.796-6.884,26.676-18.96,33.36c-3.976,1.944-5.624,6.744-3.68,10.72c1.944,3.977,6.744,5.624,10.72,3.68    C377.318,216.583,388.094,198.004,387.541,178.024z" fill="#006DF0"/>
	</g>
</g>
<g>
	<g>
		<path d="M391.861,102.904c-3.649-2.491-8.627-1.553-11.118,2.096s-1.553,8.627,2.096,11.118c0.073,0.05,0.147,0.099,0.222,0.146    c19.968,14.249,31.567,37.476,30.96,62c0.621,24.527-10.981,47.76-30.96,62c-3.73,2.369-4.833,7.312-2.465,11.042    s7.312,4.833,11.042,2.465c0.075-0.048,0.149-0.096,0.223-0.147c24.451-17.22,38.751-45.46,38.16-75.36    C430.612,148.364,416.312,120.124,391.861,102.904z" fill="#006DF0"/>
	</g>
</g>
<g>
	<g>
		<path d="M420.901,77.464c-3.667-2.563-8.717-1.667-11.28,2c-2.563,3.667-1.667,8.717,2,11.28    c28.045,20.217,44.325,52.957,43.52,87.52c0.778,34.535-15.499,67.239-43.52,87.44c-3.689,2.452-4.692,7.431-2.24,11.12    s7.431,4.692,11.12,2.24c32.493-23.182,51.468-60.892,50.72-100.8C472.06,138.43,453.243,100.734,420.901,77.464z" fill="#006DF0"/>
	</g>
</g>
<g>
	<g>
		<path d="M324.823,67.626c-0.054-0.001-0.108-0.001-0.162-0.002h-178.08c-8.395,0-15.2,6.805-15.2,15.2v283.2    c0,8.395,6.805,15.2,15.2,15.2h3.04v14.4c0,4.418,3.582,8,8,8h26.16c4.418,0,8-3.582,8-8v-14.24h86v14.24c0,4.418,3.582,8,8,8    h26.16c4.418,0,8-3.582,8-8v-14.24h4.64c8.395,0,15.2-6.805,15.2-15.2V83.064C339.914,74.67,333.217,67.758,324.823,67.626z     M165.621,387.624v-6h10.16l0.08,6H165.621z M303.861,387.624h-10.08v-6h10.16L303.861,387.624z M323.621,365.384h-176V83.624h176    V365.384z" fill="#006DF0"/>
	</g>
</g>
<g>
	<g>
		<path d="M234.821,91.624c-28.719,0-52,23.281-52,52s23.281,52,52,52s52-23.281,52-52S263.54,91.624,234.821,91.624z     M234.821,179.624c-19.882,0-36-16.118-36-36s16.118-36,36-36s36,16.118,36,36S254.704,179.624,234.821,179.624z" fill="#006DF0"/>
	</g>
</g>
<g>
	<g>
		<path d="M235.621,201.704c-41.709,0-75.52,33.811-75.52,75.52c0.044,41.69,33.83,75.476,75.52,75.52    c41.709,0,75.52-33.811,75.52-75.52C311.141,235.516,277.33,201.704,235.621,201.704z M235.621,336.664    c-32.872,0-59.52-26.648-59.52-59.52c0.044-32.854,26.666-59.476,59.52-59.52c32.872,0,59.52,26.648,59.52,59.52    C295.141,310.016,268.493,336.664,235.621,336.664z" fill="#006DF0"/>
	</g>
</g>
<g>
	<g>
		<path d="M235.621,248.584c-15.817,0-28.64,12.823-28.64,28.64c0.044,15.799,12.841,28.596,28.64,28.64    c15.817,0,28.64-12.823,28.64-28.64S251.439,248.584,235.621,248.584z M235.621,289.784c-6.981,0-12.64-5.659-12.64-12.64    c0.044-6.95,5.69-12.56,12.64-12.56v-0.08c6.981,0,12.64,5.659,12.64,12.64C248.261,284.125,242.602,289.784,235.621,289.784z" fill="#006DF0"/>
	</g>
</g>
<g>
	<g>
		<path d="M234.821,122.344c-11.974,0-21.68,9.706-21.68,21.68c0.044,11.955,9.725,21.636,21.68,21.68    c11.974,0,21.68-9.706,21.68-21.68C256.501,132.051,246.795,122.344,234.821,122.344z M234.821,149.624    c-3.137,0-5.68-2.543-5.68-5.68c0-3.137,2.543-5.68,5.68-5.68s5.68,2.543,5.68,5.68    C240.501,147.081,237.958,149.624,234.821,149.624z" fill="#006DF0"/>
	</g>
</g>
<g>
	<g>
		<circle cx="156.981" cy="356.424" r="5.6" fill="#006DF0"/>
	</g>
</g>
<g>
	<g>
		<circle cx="313.461" cy="356.424" r="5.6" fill="#006DF0"/>
	</g>
</g>
<g>
	<g>
		<circle cx="156.981" cy="94.424" r="5.6" fill="#006DF0"/>
	</g>
</g>
<g>
	<g>
		<circle cx="313.461" cy="94.424" r="5.6" fill="#006DF0"/>
	</g>
</g>
<g>
	<g>
		<circle cx="156.981" cy="215.224" r="5.6" fill="#006DF0"/>
	</g>
</g>
<g>
	<g>
		<circle cx="313.461" cy="215.224" r="5.6" fill="#006DF0"/>
	</g>
</g>
<g>
</g>
<g>
</g>
<g>
</g>
<g>
</g>
<g>
</g>
<g>
</g>
<g>
</g>
<g>
</g>
<g>
</g>
<g>
</g>
<g>
</g>
<g>
</g>
<g>
</g>
<g>
</g>
<g>
</g>
</svg>
